:SAMPLES-PER-SECOND 30
:FULLY-SPECIFIED
:DEGREES
165
root  8.5158 36.0594 2.4534 -101.978 -77.319 112.864
RightUpLeg  -42.4844 -4.37368 -4.96395
RightLeg  -0.81796 -40.8728 0.93391
RightFoot  15.4556 1.93357 -7.64778
RightToes  1.16414e-010 0 -3.6325e-017
Spine  40.0276 5.48936 20.8829
Spine1  5.74833 11.7445 8.85177
HEad  -35.7233 -13.4976 18.8246
LeftShoulder1  1.5497 -4.24149 -12.989
LeftArm  5.79748 52.1818 -34.5548
LeftForeArm  42.8427 6.10287 -15.4602
LeftHand  0.757143 12.5079 12.875
RightShoulder  -0.0459661 -4.98035 -6.04165
RightArm  -92.4519 35.4706 -10.3388
RightForeArm  -77.1474 17.6109 -3.98046
RightHand  0.0733798 -3.55248 -0.896367
LeftUpLeg  -25.8851 5.21055 0.503884
LeftLeg  65.796 7.43715 17.8223
LeftFoot  -12.7056 -0.0759817 -12.3042
LeftToes  7.09373e-011 9.9627e-011 8.96859e-012
166
root  8.49891 35.7703 1.3373 -115.607 -78.4664 126.432
RightUpLeg  -43.5912 -1.12409 -1.41072
RightLeg  3.09476 -40.8883 -1.01811
RightFoot  13.1081 1.61771 -7.01119
RightToes  1.16414e-010 0 -3.6325e-017
Spine  39.3505 5.18365 22.3499
Spine1  5.93338 11.7842 8.58151
HEad  -37.9187 -14.5851 13.1957
LeftShoulder1  1.52883 -4.11529 -13.0546
LeftArm  1.63403 55.1908 -35.715
LeftForeArm  43.5253 6.80299 -14.9089
LeftHand  0.599087 12.9633 9.88446
RightShoulder  -0.0180056 -4.42435 -7.51546
RightArm  -80.3567 35.3247 -13.2058
RightForeArm  -91.7672 10.6825 -10.3742
RightHand  -0.0846354 -1.46245 -1.929
LeftUpLeg  -29.6259 14.101 -5.98513
LeftLeg  74.6776 1.16028 6.43726
LeftFoot  -14.0112 -0.318106 -16.9498
LeftToes  7.09373e-011 9.9627e-011 8.96859e-012
167
root  8.45586 35.5265 0.0891689 -121.426 -78.6702 132.17
RightUpLeg  -43.8316 0.859289 0.793129
RightLeg  5.43511 -41.104 -2.19048
RightFoot  11.6548 1.17114 -5.36748
RightToes  1.16414e-010 0 -3.6325e-017
Spine  37.9573 4.31951 22.9566
Spine1  5.50474 10.8044 7.96079
HEad  -39.3828 -13.3339 8.39955
LeftShoulder1  1.67716 -4.63401 -13.6398
LeftArm  -2.52389 56.4705 -38.0902
LeftForeArm  42.307 7.18941 -14.474
LeftHand  0.323378 13.8849 5.2858
RightShoulder  0.00773589 -3.28976 -8.82078
RightArm  -75.556 34.1414 -14.0952
RightForeArm  -93.9036 7.32222 -11.445
RightHand  -0.336144 4.14341 -4.07238
LeftUpLeg  -32.7973 22.0877 -15.93
LeftLeg  75.8324 -1.20762 -3.75108
LeftFoot  -12.9262 -0.217696 -23.641
LeftToes  7.09373e-011 9.9627e-011 8.96859e-012
168
root  8.39413 35.4076 -1.28402 -118.831 -79.2062 129.187
RightUpLeg  -42.6221 1.64586 1.98465
RightLeg  4.19621 -42.246 -0.833843
RightFoot  11.6722 1.44439 -6.68445
RightToes  1.16414e-010 0 -3.6325e-017
Spine  36.1106 2.99075 23.6237
Spine1  4.09877 9.45966 7.26815
HEad  -41.1643 -16.0668 3.5455
LeftShoulder1  2.00142 -5.66227 -14.9939
LeftArm  -3.23442 55.7078 -39.3047
LeftForeArm  39.2275 7.27945 -14.5686
LeftHand  -0.0274576 14.8535 0.617896
RightShoulder  -0.00210323 -4.67694 -9.29093
RightArm  -75.9186 35.1888 -13.2391
RightForeArm  -95.6652 7.85607 -11.1403
RightHand  -0.0845422 -0.987383 -4.97562
LeftUpLeg  -34.2483 28.3223 -26.2882
LeftLeg  68.8855 -2.93357 -7.69275
LeftFoot  -8.18756 0.827845 -28.9842
LeftToes  7.09373e-011 9.9627e-011 8.96859e-012
169
root  8.41729 35.2365 -2.82503 -118.181 -80.2692 127.616
RightUpLeg  -41.4535 2.02473 3.91523
RightLeg  4.43425 -42.6151 0.368778
RightFoot  11.5706 1.91239 -9.00892
RightToes  1.16414e-010 0 -3.6325e-017
Spine  34.5611 2.00942 24.2865
Spine1  2.49577 8.63512 7.42271
HEad  -41.0442 -19.0241 -0.72252
LeftShoulder1  2.29835 -6.51424 -16.2185
LeftArm  -1.60337 53.0675 -40.1221
LeftForeArm  35.7275 7.12579 -15.0545
LeftHand  -0.331964 15.0806 -2.89427
RightShoulder  -0.00922622 -4.58265 -8.24479
RightArm  -74.3884 35.1652 -14.5394
RightForeArm  -109.633 8.40859 -10.8359
RightHand  1.27894 -19.5511 -10.7731
LeftUpLeg  -33.4359 33.0217 -32.35
LeftLeg  59.4212 -3.82566 -6.45212
LeftFoot  -5.00507 1.41125 -24.3697
LeftToes  7.09373e-011 9.9627e-011 8.96859e-012
170
root  8.58557 34.8662 -4.64444 -119.446 -81.0426 126.928
RightUpLeg  -42.468 -3.17835 10.6034
RightLeg  11.6916 -33.5602 -2.49812
RightFoot  11.2101 1.13963 -5.31543
RightToes  1.16414e-010 0 -3.6325e-017
Spine  33.7043 1.40728 23.052
Spine1  1.99761 7.79474 8.38173
HEad  -40.4421 -20.3073 -2.72391
LeftShoulder1  2.38828 -6.77277 -16.5385
LeftArm  -0.100691 49.2388 -41.6807
LeftForeArm  32.6061 6.85761 -15.5149
LeftHand  -0.477079 14.6841 -4.75751
RightShoulder  -2.17419e-005 -3.58838 -7.2582
RightArm  -72.028 34.4229 -15.5037
RightForeArm  -122.56 8.01926 -10.9489
RightHand  5.00171 -30.1943 -22.6515
LeftUpLeg  -30.7711 34.4793 -32.8886
LeftLeg  54.1441 -2.40545 -3.02926
LeftFoot  -9.88488 0.300109 -10.2558
LeftToes  7.09373e-011 9.9627e-011 8.96859e-012
171
root  8.85144 34.3255 -6.66198 -112.667 -81.1781 116.865
RightUpLeg  -46.5599 -16.5567 22.263
RightLeg  22.46 -12.5915 -6.51932
RightFoot  12.143 -1.44872 7.20313
RightToes  1.16414e-010 0 -3.6325e-017
Spine  32.827 0.493883 19.6302
Spine1  3.09774 5.93608 8.56222
HEad  -41.1258 -21.4114 -2.03702
LeftShoulder1  2.24218 -6.35587 -15.9844
LeftArm  0.721445 44.381 -43.2264
LeftForeArm  30.8586 6.14759 -15.7641
LeftHand  -0.491101 14.1482 -5.25605
RightShoulder  0.00647233 -3.31773 -6.8476
RightArm  -71.3162 33.7243 -13.8945
RightForeArm  -133.904 8.16867 -11.5029
RightHand  10.6544 -36.4148 -36.7923
LeftUpLeg  -26.0921 31.016 -30.0633
LeftLeg  54.0133 1.71732 3.15691
LeftFoot  -21.0213 0.00572255 -0.437486
LeftToes  7.09373e-011 9.9627e-011 8.96859e-012
172
root  9.16914 33.8254 -8.68668 -99.6122 -80.7848 100.022
RightUpLeg  -49.8081 -20.0735 20.4313
RightLeg  34.5777 -7.30142 -5.6335
RightFoot  13.2408 -4.84651 22.5106
RightToes  1.16414e-010 0 -3.6325e-017
Spine  31.6842 -0.795029 16.4972
Spine1  5.28097 3.7465 6.84059
HEad  -41.5804 -23.362 -0.518173
LeftShoulder1  1.97012 -5.50954 -15.0225
LeftArm  2.02302 38.3538 -44.1341
LeftForeArm  30.6023 4.73291 -15.9714
LeftHand  -0.430913 13.5923 -4.8354
RightShoulder  0.00400644 -3.44325 -6.19051
RightArm  -70.6513 32.2251 -11.699
RightForeArm  -143.648 8.44884 -12.2147
RightHand  16.2076 -39.003 -49.6611
LeftUpLeg  -21.3604 25.6644 -27.2649
LeftLeg  55.7232 6.00173 9.93869
LeftFoot  -30.3344 -0.00160865 -1.0007
LeftToes  7.09373e-011 9.9627e-011 8.96859e-012
173
root  9.4623 33.6483 -10.5914 -94.8863 -80.3659 92.2552
RightUpLeg  -52.0006 -22.6035 17.6013
RightLeg  45.5298 -2.95638 -3.52711
RightFoot  11.0979 -6.2906 31.419
RightToes  1.16414e-010 0 -3.6325e-017
Spine  30.914 -1.51907 15.2114
Spine1  6.98479 3.01643 4.03132
HEad  -39.2887 -25.4709 -0.575662
LeftShoulder1  1.77297 -4.7998 -14.4745
LeftArm  4.03995 32.5075 -44.5379
LeftForeArm  30.5557 3.76536 -16.1773
LeftHand  -0.326529 13.0593 -3.69582
RightShoulder  0.014857 -3.1742 -5.16689
RightArm  -67.715 29.5655 -10.8211
RightForeArm  -153.799 7.74503 -12.7489
RightHand  20.1153 -38.5842 -60.4781
LeftUpLeg  -18.281 22.5665 -24.9405
LeftLeg  56.2383 9.39365 15.2762
LeftFoot  -34.2502 -0.377607 -2.91833
LeftToes  7.09373e-011 9.9627e-011 8.96859e-012
174
root  9.62725 33.7785 -12.4451 -103.049 -80.2539 98.5566
RightUpLeg  -52.564 -21.1028 12.5464
RightLeg  56.0083 -1.0706 -2.21616
RightFoot  5.4233 -4.49664 29.7828
RightToes  1.16414e-010 0 -3.6325e-017
Spine  30.945 -0.879666 14.3505
Spine1  6.74227 3.99118 1.72366
HEad  -34.2032 -26.662 -3.11543
LeftShoulder1  1.74839 -4.53051 -14.9156
LeftArm  5.52083 29.067 -44.6083
LeftForeArm  30.3288 2.5689 -16.2639
LeftHand  -0.195112 12.5809 -1.94561
RightShoulder  0.0303357 -2.88014 -4.30048
RightArm  -64.5705 27.2871 -10.2541
RightForeArm  -161.542 6.7296 -12.9599
RightHand  21.22 -35.6161 -68.4166
LeftUpLeg  -16.3398 22.1703 -21.668
LeftLeg  55.7003 11.9127 18.5986
LeftFoot  -35.3944 -0.576994 -3.70761
LeftToes  7.09373e-011 9.9627e-011 8.96859e-012
175
root  9.66205 34.0495 -14.3615 -113.569 -79.7534 108.056
RightUpLeg  -52.2056 -17.6491 5.35214
RightLeg  65.2371 -1.73998 -4.89686
RightFoot  1.14995 -2.32817 21.2644
RightToes  1.16414e-010 0 -3.6325e-017
Spine  31.1807 0.486071 12.39
Spine1  5.06658 5.09738 0.319944
HEad  -28.655 -26.0654 -6.92348
LeftShoulder1  1.79662 -4.43596 -15.8648
LeftArm  6.1623 28.2473 -44.7995
LeftForeArm  29.711 1.25089 -16.2121
LeftHand  -0.072522 12.2345 -0.0960286
RightShoulder  0.0292753 -2.96695 -3.64305
RightArm  -63.9448 26.4924 -8.70201
RightForeArm  -164.568 6.5549 -13.1859
RightHand  20.5225 -32.0747 -73.7118
LeftUpLeg  -14.5309 22.854 -17.3603
LeftLeg  55.0767 12.1587 18.5227
LeftFoot  -36.1014 -1.00625 -5.57741
LeftToes  7.09373e-011 9.9627e-011 8.96859e-012
176
root  9.66953 34.4876 -16.3433 -116.438 -79.6184 110.4
RightUpLeg  -50.6926 -15.1604 -3.274
RightLeg  71.1013 -3.42683 -11.8626
RightFoot  2.92654 -1.29988 10.957
RightToes  1.16414e-010 0 -3.6325e-017
Spine  30.8052 1.18188 10.5657
Spine1  3.61712 5.20059 -1.07259
HEad  -24.6644 -23.3955 -10.1707
LeftShoulder1  1.77549 -4.17836 -16.3879
LeftArm  6.27757 28.2434 -45.6922
LeftForeArm  29.1993 0.687938 -16.1909
LeftHand  9.30069e-005 12.2402 1.08589
RightShoulder  0.0347312 -2.943 -2.82976
RightArm  -64.1365 26.1632 -6.91194
RightForeArm  -166.037 6.54361 -13.5202
RightHand  19.4675 -29.1134 -77.5766
LeftUpLeg  -12.7255 23.3439 -12.4406
LeftLeg  53.823 10.5162 15.5652
LeftFoot  -35.2446 -1.45099 -7.86412
LeftToes  7.09373e-011 9.9627e-011 8.96859e-012
177
root  9.64684 35.0967 -18.3485 -113.116 -80.5744 107.176
RightUpLeg  -47.1477 -13.6531 -12.3351
RightLeg  72.1321 -5.5439 -19.3665
RightFoot  8.74303 -0.313099 2.02273
RightToes  1.16414e-010 0 -3.6325e-017
Spine  29.5448 0.949869 10.203
Spine1  2.78612 4.69948 -3.0857
HEad  -22.2243 -19.4108 -12.33
LeftShoulder1  1.7032 -3.89977 -16.272
LeftArm  5.82122 28.1066 -47.1017
LeftForeArm  29.4482 1.02465 -16.2312
LeftHand  0.0221839 12.4662 1.42572
RightShoulder  0.0662418 -2.54985 -1.80953
RightArm  -61.6158 25.1406 -6.09149
RightForeArm  -169.612 5.12687 -13.4975
RightHand  18.4174 -26.8008 -80.4001
LeftUpLeg  -11.4432 23.0146 -7.36801
LeftLeg  51.4199 9.09268 12.5236
LeftFoot  -32.0347 -1.50153 -9.26442
LeftToes  7.09373e-011 9.9627e-011 8.96859e-012
178
root  9.55706 35.7472 -20.3821 -106.469 -81.8844 101.383
RightUpLeg  -41.8016 -11.9794 -20.79
RightLeg  68.5831 -8.86347 -24.0843
RightFoot  12.0397 0.386522 -1.53481
RightToes  1.16414e-010 0 -3.6325e-017
Spine  27.6837 0.753585 10.4213
Spine1  1.70794 4.26533 -4.80197
HEad  -20.2416 -15.3579 -14.0946
LeftShoulder1  1.69207 -3.91095 -16.0709
LeftArm  4.57974 28.342 -48.2376
LeftForeArm  30.2351 1.71077 -16.1847
LeftHand  0.0226162 12.5387 1.42382
RightShoulder  0.095399 -2.26592 -0.855759
RightArm  -56.832 23.5404 -5.77836
RightForeArm  -174.131 2.88315 -12.9094
RightHand  17.438 -25.0184 -82.3495
LeftUpLeg  -10.724 21.2241 -2.88058
LeftLeg  47.9899 9.11509 11.142
LeftFoot  -28.1244 -1.37038 -10.4188
LeftToes  7.09373e-011 9.9627e-011 8.96859e-012
179
root  9.42534 36.3284 -22.4198 -98.2764 -82.7753 94.183
RightUpLeg  -35.3648 -9.88607 -27.8538
RightLeg  61.1681 -12.5439 -23.7079
RightFoot  11.388 0.495556 -2.0777
RightToes  1.16414e-010 0 -3.6325e-017
Spine  26.0183 1.01925 10.0419
Spine1  0.0253169 3.97224 -5.14232
HEad  -18.1676 -11.9366 -15.7678
LeftShoulder1  1.72803 -4.06199 -16.093
LeftArm  2.61465 29.0158 -48.7616
LeftForeArm  31.0245 2.63073 -16.0159
LeftHand  0.0282053 12.5505 1.50884
RightShoulder  0.0982689 -2.33808 -0.0183396
RightArm  -54.9591 21.609 -4.77199
RightForeArm  -175.365 2.79572 -12.6233
RightHand  16.2191 -23.0637 -84.3272
LeftUpLeg  -9.90027 17.9475 0.726605
LeftLeg  44.0384 10.3441 10.9696
LeftFoot  -24.7351 -1.22801 -11.6744
LeftToes  7.09373e-011 9.9627e-011 8.96859e-012
